<?xml version="1.0" standalone="no"?>
<!DOCTYPE svg PUBLIC "-//W3C//DTD SVG 20010904//EN"
 "http://www.w3.org/TR/2001/REC-SVG-20010904/DTD/svg10.dtd">
<svg version="1.0" xmlns="http://www.w3.org/2000/svg"
 width="512.000000pt" height="512.000000pt" viewBox="0 0 512.000000 512.000000"
 preserveAspectRatio="xMidYMid meet">
<metadata>
Created by potrace 1.14, written by Peter Selinger 2001-2017
</metadata>
<g transform="translate(0.000000,512.000000) scale(0.100000,-0.100000)"
fill="#000000" stroke="none">
<path d="M2350 5114 c-264 -30 -476 -77 -665 -146 -800 -294 -1404 -963 -1608
-1783 -59 -236 -72 -348 -72 -625 0 -277 13 -389 72 -625 227 -911 947 -1631
1858 -1858 236 -59 348 -72 625 -72 277 0 389 13 625 72 911 227 1631 947
1858 1858 59 236 72 348 72 625 0 277 -13 389 -72 625 -250 1001 -1081 1753
-2113 1910 -100 16 -499 28 -580 19z m360 -1084 c343 -36 682 -179 991 -419
112 -88 1049 -918 1049 -930 0 -8 -208 -244 -219 -248 -3 -2 -222 189 -486
423 -264 234 -524 459 -577 500 -300 226 -596 336 -904 335 -411 -1 -787 -198
-1149 -602 -55 -61 -100 -114 -100 -118 0 -4 54 -55 120 -115 66 -59 120 -111
120 -117 0 -11 -206 -249 -217 -249 -9 0 -502 438 -506 449 -4 13 379 441 494
551 412 397 905 589 1384 540z m45 -725 c269 -72 485 -290 556 -560 26 -101
29 -269 5 -368 -84 -353 -393 -597 -756 -597 -357 0 -659 232 -752 579 -31
117 -29 287 6 406 88 297 315 496 636 559 47 9 245 -3 305 -19z m-1590 -1134
c209 -185 412 -362 450 -393 212 -169 465 -292 706 -344 113 -24 340 -25 462
-1 307 61 603 242 881 540 57 61 114 124 125 139 l21 26 -125 113 c-69 62
-124 116 -123 120 6 16 213 248 220 246 16 -4 509 -449 506 -457 -7 -18 -369
-422 -456 -508 -294 -292 -622 -477 -976 -554 -148 -32 -455 -32 -605 0 -298
65 -605 215 -867 424 -67 53 -1007 886 -1015 899 -2 4 47 63 109 133 l114 126
96 -86 c54 -48 268 -238 477 -423z"/>
<path d="M2482 2979 c-131 -22 -248 -112 -309 -237 -37 -75 -38 -78 -38 -191
0 -111 2 -119 32 -182 131 -268 484 -333 692 -128 96 95 136 198 129 338 -5
101 -40 190 -104 261 -100 110 -256 164 -402 139z"/>
</g>
</svg>
